# xmcd
# 
# Track frame offsets:
#     150
#     16972
#     37247
#     51542
#     65445
#     85055
#     100980
#     119077
#     137995
#     155557
#     174927
#     191777
#     207547
#     222200
# 
# Disc length: 3179
# 
# Revision: 2
# Processed by: cddbd v1.5.2PL0 Copyright (c) Steve Scherf et al.
# Submitted via: fre:ac v1.0.31
# 
DISCID=d90c690e
DTITLE=Blues Traveler - Blow Up The Moon
DYEAR=2015
DGENRE=Rock/Pop
TTITLE0=Hurricane (w 30H!3)
TTITLE1=Blow Up the Moon (w JC Chasez, and 30H!3)
TTITLE2=Castaway (w  Dirty Heads and Rome Ramirez)
TTITLE3=Vagabond Blues (w Dirty Heads and Rome Ramirez)
TTITLE4=Top of the World (w Hanson)
TTITLE5=Nikkia's Prom (w Plain White T's)
TTITLE6=Matador (w Thompson Square)
TTITLE7=I can still feel you (w Thompson Square)
TTITLE8=The Darkness we all need (w Secondhand Serenade)
TTITLE9=Jackie's Baby (w New Hollow)
TTITLE10=Hearts are still awake (w Jewel)
TTITLE11=I know right (w Bowling for Soup)
TTITLE12=Right here waiting for you (w Bowling for Soup)
TTITLE13=All the way (w Ian Nicholas)
EXTD=
EXTT0=
EXTT1=
EXTT2=
EXTT3=
EXTT4=
EXTT5=
EXTT6=
EXTT7=
EXTT8=
EXTT9=
EXTT10=
EXTT11=
EXTT12=
EXTT13=
PLAYORDER=
